<svg xmlns="http://www.w3.org/2000/svg" xmlns:xlink="http://www.w3.org/1999/xlink" width="500" zoomAndPan="magnify" viewBox="0 0 375 374.999991" height="500" preserveAspectRatio="xMidYMid meet" version="1.2"><defs><clipPath id="d23317a115"><path d="M 85.675781 153 L 275.425781 153 L 275.425781 263.359375 L 85.675781 263.359375 Z M 85.675781 153 "/></clipPath><clipPath id="3e8fc35b25"><path d="M 188 27.859375 L 252 27.859375 L 252 198 L 188 198 Z M 188 27.859375 "/></clipPath></defs><g id="96b0695e25"><rect x="0" width="375" y="0" height="374.999991" style="fill:#ffffff;fill-opacity:1;stroke:none;"/><rect x="0" width="375" y="0" height="374.999991" style="fill:#ffffff;fill-opacity:1;stroke:none;"/><g style="fill:#60b3e4;fill-opacity:1;"><g transform="translate(100.381261, 309.032279)"><path style="stroke:none" d="M 20.625 -16.4375 L 13.265625 -16.4375 L 13.265625 0 L 4.015625 0 L 4.015625 -44.90625 L 20.6875 -44.90625 C 26 -44.90625 30.09375 -43.722656 32.96875 -41.359375 C 35.84375 -38.992188 37.28125 -35.648438 37.28125 -31.328125 C 37.28125 -28.265625 36.617188 -25.707031 35.296875 -23.65625 C 33.972656 -21.613281 31.960938 -19.988281 29.265625 -18.78125 L 38.984375 -0.4375 L 38.984375 0 L 29.046875 0 Z M 13.265625 -23.9375 L 20.71875 -23.9375 C 23.039062 -23.9375 24.835938 -24.523438 26.109375 -25.703125 C 27.390625 -26.890625 28.03125 -28.519531 28.03125 -30.59375 C 28.03125 -32.707031 27.425781 -34.367188 26.21875 -35.578125 C 25.019531 -36.796875 23.175781 -37.40625 20.6875 -37.40625 L 13.265625 -37.40625 Z M 13.265625 -23.9375 "/></g></g><g style="fill:#60b3e4;fill-opacity:1;"><g transform="translate(140.676569, 309.032279)"><path style="stroke:none" d=""/></g></g><g style="fill:#60b3e4;fill-opacity:1;"><g transform="translate(156.400064, 309.032279)"><path style="stroke:none" d="M 38.984375 -12.953125 L 45.03125 -44.90625 L 54.25 -44.90625 L 44.28125 0 L 34.96875 0 L 27.65625 -30.03125 L 20.359375 0 L 11.046875 0 L 1.078125 -44.90625 L 10.296875 -44.90625 L 16.375 -13.015625 L 23.78125 -44.90625 L 31.609375 -44.90625 Z M 38.984375 -12.953125 "/></g></g><g style="fill:#60b3e4;fill-opacity:1;"><g transform="translate(211.617277, 309.032279)"><path style="stroke:none" d="M 13.84375 0 L 4.59375 0 L 4.59375 -44.90625 L 13.84375 -44.90625 Z M 13.84375 0 "/></g></g><g style="fill:#60b3e4;fill-opacity:1;"><g transform="translate(230.023014, 309.032279)"><path style="stroke:none" d="M 40.515625 0 L 31.265625 0 L 13.265625 -29.546875 L 13.265625 0 L 4.015625 0 L 4.015625 -44.90625 L 13.265625 -44.90625 L 31.296875 -15.296875 L 31.296875 -44.90625 L 40.515625 -44.90625 Z M 40.515625 0 "/></g></g><g style="fill:#f1901b;fill-opacity:1;"><g transform="translate(89.684771, 321.801922)"><path style="stroke:none" d="M 4.21875 0 L 3.015625 0 L 0.328125 -7.734375 L 1.296875 -7.734375 L 3.578125 -1.140625 L 3.703125 -1.140625 L 5.953125 -7.734375 L 6.90625 -7.734375 Z M 4.21875 0 "/></g></g><g style="fill:#f1901b;fill-opacity:1;"><g transform="translate(96.448423, 321.801922)"><path style="stroke:none" d="M 3.359375 0.109375 C 2.804688 0.109375 2.320312 -0.00390625 1.90625 -0.234375 C 1.5 -0.472656 1.1875 -0.816406 0.96875 -1.265625 C 0.75 -1.722656 0.640625 -2.273438 0.640625 -2.921875 C 0.640625 -3.566406 0.75 -4.113281 0.96875 -4.5625 C 1.1875 -5.019531 1.5 -5.363281 1.90625 -5.59375 C 2.320312 -5.832031 2.804688 -5.953125 3.359375 -5.953125 C 3.898438 -5.953125 4.375 -5.832031 4.78125 -5.59375 C 5.195312 -5.363281 5.515625 -5.019531 5.734375 -4.5625 C 5.953125 -4.113281 6.0625 -3.566406 6.0625 -2.921875 C 6.0625 -2.273438 5.953125 -1.722656 5.734375 -1.265625 C 5.515625 -0.816406 5.195312 -0.472656 4.78125 -0.234375 C 4.375 -0.00390625 3.898438 0.109375 3.359375 0.109375 Z M 3.359375 -0.65625 C 3.929688 -0.65625 4.375 -0.835938 4.6875 -1.203125 C 5 -1.578125 5.15625 -2.148438 5.15625 -2.921875 C 5.15625 -3.691406 5 -4.257812 4.6875 -4.625 C 4.375 -4.988281 3.929688 -5.171875 3.359375 -5.171875 C 2.773438 -5.171875 2.328125 -4.988281 2.015625 -4.625 C 1.703125 -4.257812 1.546875 -3.691406 1.546875 -2.921875 C 1.546875 -2.148438 1.703125 -1.578125 2.015625 -1.203125 C 2.328125 -0.835938 2.773438 -0.65625 3.359375 -0.65625 Z M 3.359375 -0.65625 "/></g></g><g style="fill:#f1901b;fill-opacity:1;"><g transform="translate(102.682786, 321.801922)"><path style="stroke:none" d="M 3.953125 -0.921875 L 4.21875 -0.3125 C 4.082031 -0.164062 3.898438 -0.0625 3.671875 0 C 3.453125 0.0703125 3.210938 0.109375 2.953125 0.109375 C 1.835938 0.109375 1.28125 -0.453125 1.28125 -1.578125 L 1.28125 -5.140625 L 0.265625 -5.140625 L 0.265625 -5.84375 L 1.28125 -5.84375 L 1.28125 -7.078125 L 2.140625 -7.21875 L 2.140625 -5.84375 L 4.03125 -5.84375 L 4.03125 -5.140625 L 2.140625 -5.140625 L 2.140625 -1.671875 C 2.140625 -0.992188 2.429688 -0.65625 3.015625 -0.65625 C 3.335938 -0.65625 3.613281 -0.742188 3.84375 -0.921875 Z M 3.953125 -0.921875 "/></g></g><g style="fill:#f1901b;fill-opacity:1;"><g transform="translate(106.662377, 321.801922)"><path style="stroke:none" d="M 1.015625 0 L 1.015625 -5.84375 L 1.84375 -5.84375 L 1.84375 -4.921875 L 1.953125 -4.890625 C 2.222656 -5.554688 2.734375 -5.890625 3.484375 -5.890625 C 3.878906 -5.890625 4.175781 -5.816406 4.375 -5.671875 L 4.15625 -4.953125 L 4.046875 -4.921875 C 3.828125 -5.035156 3.585938 -5.09375 3.328125 -5.09375 C 2.859375 -5.09375 2.5 -4.914062 2.25 -4.5625 C 2 -4.21875 1.875 -3.648438 1.875 -2.859375 L 1.875 0 Z M 1.015625 0 "/></g></g><g style="fill:#f1901b;fill-opacity:1;"><g transform="translate(110.705483, 321.801922)"><path style="stroke:none" d="M 5.5625 -2.71875 L 1.546875 -2.71875 C 1.578125 -2.007812 1.75 -1.488281 2.0625 -1.15625 C 2.375 -0.820312 2.804688 -0.65625 3.359375 -0.65625 C 3.773438 -0.65625 4.109375 -0.726562 4.359375 -0.875 C 4.617188 -1.03125 4.820312 -1.265625 4.96875 -1.578125 L 5.078125 -1.578125 L 5.640625 -1.25 C 5.472656 -0.820312 5.203125 -0.488281 4.828125 -0.25 C 4.453125 -0.0078125 3.960938 0.109375 3.359375 0.109375 C 2.796875 0.109375 2.3125 0 1.90625 -0.21875 C 1.5 -0.445312 1.1875 -0.785156 0.96875 -1.234375 C 0.75 -1.679688 0.640625 -2.242188 0.640625 -2.921875 C 0.640625 -3.578125 0.753906 -4.132812 0.984375 -4.59375 C 1.210938 -5.050781 1.523438 -5.390625 1.921875 -5.609375 C 2.328125 -5.835938 2.789062 -5.953125 3.3125 -5.953125 C 4.0625 -5.953125 4.644531 -5.738281 5.0625 -5.3125 C 5.476562 -4.894531 5.691406 -4.269531 5.703125 -3.4375 C 5.703125 -3.113281 5.691406 -2.894531 5.671875 -2.78125 Z M 4.84375 -3.4375 C 4.832031 -4.0625 4.695312 -4.515625 4.4375 -4.796875 C 4.175781 -5.078125 3.800781 -5.21875 3.3125 -5.21875 C 2.800781 -5.21875 2.398438 -5.078125 2.109375 -4.796875 C 1.816406 -4.515625 1.640625 -4.0625 1.578125 -3.4375 Z M 4.84375 -3.4375 "/></g></g><g style="fill:#f1901b;fill-opacity:1;"><g transform="translate(116.463486, 321.801922)"><path style="stroke:none" d=""/></g></g><g style="fill:#f1901b;fill-opacity:1;"><g transform="translate(118.65408, 321.801922)"><path style="stroke:none" d="M 3 2.484375 C 2.082031 2.484375 1.410156 2.328125 0.984375 2.015625 C 0.566406 1.710938 0.359375 1.304688 0.359375 0.796875 C 0.359375 0.460938 0.457031 0.195312 0.65625 0 C 0.851562 -0.1875 1.140625 -0.320312 1.515625 -0.40625 L 1.515625 -0.515625 C 1.335938 -0.617188 1.203125 -0.738281 1.109375 -0.875 C 1.015625 -1.007812 0.96875 -1.175781 0.96875 -1.375 C 0.96875 -1.59375 1.039062 -1.773438 1.1875 -1.921875 C 1.332031 -2.066406 1.546875 -2.175781 1.828125 -2.25 L 1.828125 -2.359375 C 1.191406 -2.691406 0.875 -3.238281 0.875 -4 C 0.875 -4.375 0.957031 -4.707031 1.125 -5 C 1.300781 -5.300781 1.550781 -5.535156 1.875 -5.703125 C 2.195312 -5.867188 2.570312 -5.953125 3 -5.953125 C 3.488281 -5.953125 3.894531 -5.84375 4.21875 -5.625 C 4.34375 -5.757812 4.4375 -5.90625 4.5 -6.0625 C 4.5625 -6.226562 4.601562 -6.410156 4.625 -6.609375 L 4.734375 -6.671875 L 5.4375 -6.5 C 5.40625 -6.207031 5.316406 -5.957031 5.171875 -5.75 C 5.035156 -5.539062 4.832031 -5.367188 4.5625 -5.234375 L 4.5625 -5.125 C 4.75 -4.976562 4.890625 -4.804688 4.984375 -4.609375 C 5.078125 -4.410156 5.125 -4.175781 5.125 -3.90625 C 5.125 -3.539062 5.035156 -3.210938 4.859375 -2.921875 C 4.679688 -2.628906 4.429688 -2.398438 4.109375 -2.234375 C 3.785156 -2.066406 3.414062 -1.984375 3 -1.984375 C 2.945312 -1.984375 2.859375 -1.984375 2.734375 -1.984375 C 2.585938 -1.992188 2.484375 -2 2.421875 -2 C 2.234375 -2 2.082031 -1.953125 1.96875 -1.859375 C 1.863281 -1.765625 1.8125 -1.644531 1.8125 -1.5 C 1.8125 -1.3125 1.867188 -1.171875 1.984375 -1.078125 C 2.109375 -0.992188 2.304688 -0.945312 2.578125 -0.9375 L 3.953125 -0.890625 C 4.554688 -0.867188 5 -0.726562 5.28125 -0.46875 C 5.570312 -0.21875 5.71875 0.140625 5.71875 0.609375 C 5.71875 0.960938 5.625 1.273438 5.4375 1.546875 C 5.25 1.828125 4.953125 2.050781 4.546875 2.21875 C 4.140625 2.394531 3.625 2.484375 3 2.484375 Z M 3 -2.71875 C 3.40625 -2.71875 3.722656 -2.828125 3.953125 -3.046875 C 4.179688 -3.265625 4.296875 -3.566406 4.296875 -3.953125 C 4.296875 -4.347656 4.179688 -4.65625 3.953125 -4.875 C 3.734375 -5.09375 3.414062 -5.203125 3 -5.203125 C 2.582031 -5.203125 2.265625 -5.09375 2.046875 -4.875 C 1.828125 -4.664062 1.71875 -4.359375 1.71875 -3.953125 C 1.71875 -3.554688 1.828125 -3.25 2.046875 -3.03125 C 2.265625 -2.820312 2.582031 -2.71875 3 -2.71875 Z M 3 1.734375 C 3.4375 1.734375 3.789062 1.6875 4.0625 1.59375 C 4.332031 1.5 4.523438 1.375 4.640625 1.21875 C 4.765625 1.0625 4.828125 0.882812 4.828125 0.6875 C 4.828125 0.507812 4.796875 0.367188 4.734375 0.265625 C 4.671875 0.160156 4.566406 0.0820312 4.421875 0.03125 C 4.273438 -0.0195312 4.078125 -0.0507812 3.828125 -0.0625 L 2.515625 -0.125 L 2.328125 -0.125 C 1.597656 -0.113281 1.234375 0.164062 1.234375 0.71875 C 1.234375 1.394531 1.820312 1.734375 3 1.734375 Z M 3 1.734375 "/></g></g><g style="fill:#f1901b;fill-opacity:1;"><g transform="translate(124.168609, 321.801922)"><path style="stroke:none" d="M 5.5625 -2.71875 L 1.546875 -2.71875 C 1.578125 -2.007812 1.75 -1.488281 2.0625 -1.15625 C 2.375 -0.820312 2.804688 -0.65625 3.359375 -0.65625 C 3.773438 -0.65625 4.109375 -0.726562 4.359375 -0.875 C 4.617188 -1.03125 4.820312 -1.265625 4.96875 -1.578125 L 5.078125 -1.578125 L 5.640625 -1.25 C 5.472656 -0.820312 5.203125 -0.488281 4.828125 -0.25 C 4.453125 -0.0078125 3.960938 0.109375 3.359375 0.109375 C 2.796875 0.109375 2.3125 0 1.90625 -0.21875 C 1.5 -0.445312 1.1875 -0.785156 0.96875 -1.234375 C 0.75 -1.679688 0.640625 -2.242188 0.640625 -2.921875 C 0.640625 -3.578125 0.753906 -4.132812 0.984375 -4.59375 C 1.210938 -5.050781 1.523438 -5.390625 1.921875 -5.609375 C 2.328125 -5.835938 2.789062 -5.953125 3.3125 -5.953125 C 4.0625 -5.953125 4.644531 -5.738281 5.0625 -5.3125 C 5.476562 -4.894531 5.691406 -4.269531 5.703125 -3.4375 C 5.703125 -3.113281 5.691406 -2.894531 5.671875 -2.78125 Z M 4.84375 -3.4375 C 4.832031 -4.0625 4.695312 -4.515625 4.4375 -4.796875 C 4.175781 -5.078125 3.800781 -5.21875 3.3125 -5.21875 C 2.800781 -5.21875 2.398438 -5.078125 2.109375 -4.796875 C 1.816406 -4.515625 1.640625 -4.0625 1.578125 -3.4375 Z M 4.84375 -3.4375 "/></g></g><g style="fill:#f1901b;fill-opacity:1;"><g transform="translate(129.926612, 321.801922)"><path style="stroke:none" d="M 2.65625 0.109375 C 2.289062 0.109375 1.953125 0.0625 1.640625 -0.03125 C 1.328125 -0.132812 1.0625 -0.269531 0.84375 -0.4375 C 0.632812 -0.601562 0.484375 -0.789062 0.390625 -1 L 0.90625 -1.53125 L 1.015625 -1.53125 C 1.203125 -1.238281 1.429688 -1.019531 1.703125 -0.875 C 1.972656 -0.726562 2.289062 -0.65625 2.65625 -0.65625 C 3.09375 -0.65625 3.421875 -0.738281 3.640625 -0.90625 C 3.867188 -1.082031 3.984375 -1.316406 3.984375 -1.609375 C 3.984375 -1.835938 3.914062 -2.023438 3.78125 -2.171875 C 3.644531 -2.328125 3.425781 -2.441406 3.125 -2.515625 L 2.140625 -2.765625 C 1.609375 -2.890625 1.222656 -3.085938 0.984375 -3.359375 C 0.742188 -3.640625 0.625 -3.984375 0.625 -4.390625 C 0.625 -4.703125 0.703125 -4.972656 0.859375 -5.203125 C 1.023438 -5.441406 1.257812 -5.625 1.5625 -5.75 C 1.863281 -5.882812 2.226562 -5.953125 2.65625 -5.953125 C 3.1875 -5.953125 3.609375 -5.875 3.921875 -5.71875 C 4.234375 -5.570312 4.472656 -5.363281 4.640625 -5.09375 L 4.15625 -4.625 L 4.046875 -4.625 C 3.859375 -4.84375 3.65625 -5 3.4375 -5.09375 C 3.21875 -5.1875 2.957031 -5.234375 2.65625 -5.234375 C 2.269531 -5.234375 1.972656 -5.160156 1.765625 -5.015625 C 1.566406 -4.878906 1.46875 -4.679688 1.46875 -4.421875 C 1.46875 -4.191406 1.535156 -4.003906 1.671875 -3.859375 C 1.816406 -3.710938 2.070312 -3.59375 2.4375 -3.5 L 3.40625 -3.265625 C 3.914062 -3.148438 4.28125 -2.953125 4.5 -2.671875 C 4.726562 -2.390625 4.84375 -2.039062 4.84375 -1.625 C 4.84375 -1.28125 4.757812 -0.976562 4.59375 -0.71875 C 4.4375 -0.457031 4.191406 -0.253906 3.859375 -0.109375 C 3.535156 0.0351562 3.132812 0.109375 2.65625 0.109375 Z M 2.65625 0.109375 "/></g></g><g style="fill:#f1901b;fill-opacity:1;"><g transform="translate(134.858924, 321.801922)"><path style="stroke:none" d="M 3.953125 -0.921875 L 4.21875 -0.3125 C 4.082031 -0.164062 3.898438 -0.0625 3.671875 0 C 3.453125 0.0703125 3.210938 0.109375 2.953125 0.109375 C 1.835938 0.109375 1.28125 -0.453125 1.28125 -1.578125 L 1.28125 -5.140625 L 0.265625 -5.140625 L 0.265625 -5.84375 L 1.28125 -5.84375 L 1.28125 -7.078125 L 2.140625 -7.21875 L 2.140625 -5.84375 L 4.03125 -5.84375 L 4.03125 -5.140625 L 2.140625 -5.140625 L 2.140625 -1.671875 C 2.140625 -0.992188 2.429688 -0.65625 3.015625 -0.65625 C 3.335938 -0.65625 3.613281 -0.742188 3.84375 -0.921875 Z M 3.953125 -0.921875 "/></g></g><g style="fill:#f1901b;fill-opacity:1;"><g transform="translate(138.838515, 321.801922)"><path style="stroke:none" d="M 1.453125 -6.96875 C 1.265625 -6.96875 1.113281 -7.023438 1 -7.140625 C 0.882812 -7.253906 0.828125 -7.398438 0.828125 -7.578125 C 0.828125 -7.753906 0.882812 -7.898438 1 -8.015625 C 1.113281 -8.128906 1.265625 -8.1875 1.453125 -8.1875 C 1.628906 -8.1875 1.773438 -8.128906 1.890625 -8.015625 C 2.003906 -7.898438 2.0625 -7.753906 2.0625 -7.578125 C 2.0625 -7.398438 2.003906 -7.253906 1.890625 -7.140625 C 1.773438 -7.023438 1.628906 -6.96875 1.453125 -6.96875 Z M 1.015625 0 L 1.015625 -5.84375 L 1.875 -5.84375 L 1.875 0 Z M 1.015625 0 "/></g></g><g style="fill:#f1901b;fill-opacity:1;"><g transform="translate(141.267294, 321.801922)"><path style="stroke:none" d="M 3.359375 0.109375 C 2.804688 0.109375 2.320312 -0.00390625 1.90625 -0.234375 C 1.5 -0.472656 1.1875 -0.816406 0.96875 -1.265625 C 0.75 -1.722656 0.640625 -2.273438 0.640625 -2.921875 C 0.640625 -3.566406 0.75 -4.113281 0.96875 -4.5625 C 1.1875 -5.019531 1.5 -5.363281 1.90625 -5.59375 C 2.320312 -5.832031 2.804688 -5.953125 3.359375 -5.953125 C 3.898438 -5.953125 4.375 -5.832031 4.78125 -5.59375 C 5.195312 -5.363281 5.515625 -5.019531 5.734375 -4.5625 C 5.953125 -4.113281 6.0625 -3.566406 6.0625 -2.921875 C 6.0625 -2.273438 5.953125 -1.722656 5.734375 -1.265625 C 5.515625 -0.816406 5.195312 -0.472656 4.78125 -0.234375 C 4.375 -0.00390625 3.898438 0.109375 3.359375 0.109375 Z M 3.359375 -0.65625 C 3.929688 -0.65625 4.375 -0.835938 4.6875 -1.203125 C 5 -1.578125 5.15625 -2.148438 5.15625 -2.921875 C 5.15625 -3.691406 5 -4.257812 4.6875 -4.625 C 4.375 -4.988281 3.929688 -5.171875 3.359375 -5.171875 C 2.773438 -5.171875 2.328125 -4.988281 2.015625 -4.625 C 1.703125 -4.257812 1.546875 -3.691406 1.546875 -2.921875 C 1.546875 -2.148438 1.703125 -1.578125 2.015625 -1.203125 C 2.328125 -0.835938 2.773438 -0.65625 3.359375 -0.65625 Z M 3.359375 -0.65625 "/></g></g><g style="fill:#f1901b;fill-opacity:1;"><g transform="translate(147.501658, 321.801922)"><path style="stroke:none" d="M 1.015625 0 L 1.015625 -5.84375 L 1.84375 -5.84375 L 1.84375 -4.921875 L 1.953125 -4.890625 C 2.140625 -5.234375 2.382812 -5.492188 2.6875 -5.671875 C 2.988281 -5.859375 3.359375 -5.953125 3.796875 -5.953125 C 4.492188 -5.953125 5 -5.769531 5.3125 -5.40625 C 5.632812 -5.050781 5.796875 -4.503906 5.796875 -3.765625 L 5.796875 0 L 4.9375 0 L 4.9375 -3.734375 C 4.9375 -4.085938 4.890625 -4.367188 4.796875 -4.578125 C 4.710938 -4.796875 4.570312 -4.953125 4.375 -5.046875 C 4.1875 -5.148438 3.941406 -5.203125 3.640625 -5.203125 C 3.109375 -5.203125 2.679688 -5.023438 2.359375 -4.671875 C 2.035156 -4.328125 1.875 -3.769531 1.875 -3 L 1.875 0 Z M 1.015625 0 "/></g></g><g style="fill:#f1901b;fill-opacity:1;"><g transform="translate(153.757192, 321.801922)"><path style="stroke:none" d=""/></g></g><g style="fill:#f1901b;fill-opacity:1;"><g transform="translate(155.947786, 321.801922)"><path style="stroke:none" d="M 1.171875 0 L 1.171875 -7.734375 L 3.984375 -7.734375 C 4.503906 -7.734375 4.9375 -7.648438 5.28125 -7.484375 C 5.632812 -7.316406 5.898438 -7.078125 6.078125 -6.765625 C 6.253906 -6.453125 6.34375 -6.082031 6.34375 -5.65625 C 6.34375 -5.164062 6.222656 -4.765625 5.984375 -4.453125 C 5.742188 -4.148438 5.367188 -3.921875 4.859375 -3.765625 L 4.859375 -3.640625 C 5.109375 -3.546875 5.3125 -3.390625 5.46875 -3.171875 C 5.632812 -2.960938 5.785156 -2.648438 5.921875 -2.234375 L 6.640625 0 L 5.703125 0 L 4.921875 -2.359375 C 4.828125 -2.640625 4.71875 -2.859375 4.59375 -3.015625 C 4.476562 -3.179688 4.328125 -3.296875 4.140625 -3.359375 C 3.960938 -3.429688 3.734375 -3.46875 3.453125 -3.46875 L 2.078125 -3.46875 L 2.078125 0 Z M 3.953125 -4.25 C 4.441406 -4.25 4.800781 -4.359375 5.03125 -4.578125 C 5.269531 -4.804688 5.390625 -5.148438 5.390625 -5.609375 C 5.390625 -6.066406 5.269531 -6.40625 5.03125 -6.625 C 4.800781 -6.851562 4.441406 -6.96875 3.953125 -6.96875 L 2.078125 -6.96875 L 2.078125 -4.25 Z M 3.953125 -4.25 "/></g></g><g style="fill:#f1901b;fill-opacity:1;"><g transform="translate(162.647924, 321.801922)"><path style="stroke:none" d="M 6.109375 -4.59375 L 6.109375 -7.734375 L 7.015625 -7.734375 L 7.015625 0 L 6.109375 0 L 6.109375 -3.828125 L 2.078125 -3.828125 L 2.078125 0 L 1.171875 0 L 1.171875 -7.734375 L 2.078125 -7.734375 L 2.078125 -4.59375 Z M 6.109375 -4.59375 "/></g></g><g style="fill:#f1901b;fill-opacity:1;"><g transform="translate(170.364296, 321.801922)"><path style="stroke:none" d="M 0.328125 1.609375 C 0.640625 1.410156 0.898438 1.175781 1.109375 0.90625 C 1.316406 0.644531 1.425781 0.359375 1.4375 0.046875 C 1.226562 0.046875 1.0625 -0.0078125 0.9375 -0.125 C 0.820312 -0.238281 0.765625 -0.390625 0.765625 -0.578125 C 0.765625 -0.765625 0.820312 -0.914062 0.9375 -1.03125 C 1.0625 -1.144531 1.21875 -1.203125 1.40625 -1.203125 C 1.613281 -1.203125 1.78125 -1.128906 1.90625 -0.984375 C 2.039062 -0.835938 2.109375 -0.613281 2.109375 -0.3125 C 2.109375 0.238281 1.988281 0.703125 1.75 1.078125 C 1.507812 1.453125 1.160156 1.796875 0.703125 2.109375 Z M 0.328125 1.609375 "/></g></g><g style="fill:#f1901b;fill-opacity:1;"><g transform="translate(172.771904, 321.801922)"><path style="stroke:none" d=""/></g></g><g style="fill:#f1901b;fill-opacity:1;"><g transform="translate(174.962498, 321.801922)"><path style="stroke:none" d="M 1.015625 2.359375 L 1.015625 -5.84375 L 1.875 -5.84375 L 1.875 -4.96875 L 1.984375 -4.953125 C 2.421875 -5.617188 3.0625 -5.953125 3.90625 -5.953125 C 4.394531 -5.953125 4.816406 -5.835938 5.171875 -5.609375 C 5.535156 -5.390625 5.816406 -5.050781 6.015625 -4.59375 C 6.222656 -4.144531 6.328125 -3.585938 6.328125 -2.921875 C 6.328125 -2.253906 6.21875 -1.691406 6 -1.234375 C 5.789062 -0.785156 5.5 -0.445312 5.125 -0.21875 C 4.75 0 4.320312 0.109375 3.84375 0.109375 C 3.445312 0.109375 3.09375 0.0390625 2.78125 -0.09375 C 2.476562 -0.226562 2.210938 -0.453125 1.984375 -0.765625 L 1.875 -0.75 L 1.875 2.359375 Z M 3.640625 -0.65625 C 4.828125 -0.65625 5.421875 -1.410156 5.421875 -2.921875 C 5.421875 -4.421875 4.828125 -5.171875 3.640625 -5.171875 C 3.296875 -5.171875 2.988281 -5.09375 2.71875 -4.9375 C 2.457031 -4.78125 2.25 -4.53125 2.09375 -4.1875 C 1.945312 -3.851562 1.875 -3.429688 1.875 -2.921875 C 1.875 -2.410156 1.945312 -1.984375 2.09375 -1.640625 C 2.25 -1.304688 2.457031 -1.054688 2.71875 -0.890625 C 2.988281 -0.734375 3.296875 -0.65625 3.640625 -0.65625 Z M 3.640625 -0.65625 "/></g></g><g style="fill:#f1901b;fill-opacity:1;"><g transform="translate(181.461506, 321.801922)"><path style="stroke:none" d="M 2.328125 0.109375 C 1.910156 0.109375 1.582031 -0.00390625 1.34375 -0.234375 C 1.113281 -0.472656 1 -0.828125 1 -1.296875 L 1 -8.1875 L 1.859375 -8.1875 L 1.859375 -1.34375 C 1.859375 -1.101562 1.90625 -0.925781 2 -0.8125 C 2.09375 -0.707031 2.238281 -0.65625 2.4375 -0.65625 C 2.550781 -0.65625 2.671875 -0.675781 2.796875 -0.71875 L 2.875 -0.703125 L 2.96875 -0.015625 C 2.90625 0.0234375 2.816406 0.0546875 2.703125 0.078125 C 2.585938 0.0976562 2.460938 0.109375 2.328125 0.109375 Z M 2.328125 0.109375 "/></g></g><g style="fill:#f1901b;fill-opacity:1;"><g transform="translate(184.170803, 321.801922)"><path style="stroke:none" d="M 2.890625 0.109375 C 2.222656 0.109375 1.726562 -0.0625 1.40625 -0.40625 C 1.082031 -0.757812 0.921875 -1.273438 0.921875 -1.953125 L 0.921875 -5.84375 L 1.796875 -5.84375 L 1.796875 -1.96875 C 1.796875 -1.082031 2.210938 -0.640625 3.046875 -0.640625 C 3.566406 -0.640625 3.976562 -0.8125 4.28125 -1.15625 C 4.59375 -1.5 4.75 -2.0625 4.75 -2.84375 L 4.75 -5.84375 L 5.625 -5.84375 L 5.625 0 L 4.796875 0 L 4.796875 -0.921875 L 4.6875 -0.9375 C 4.488281 -0.582031 4.25 -0.316406 3.96875 -0.140625 C 3.6875 0.0234375 3.328125 0.109375 2.890625 0.109375 Z M 2.890625 0.109375 "/></g></g><g style="fill:#f1901b;fill-opacity:1;"><g transform="translate(190.336364, 321.801922)"><path style="stroke:none" d="M 2.65625 0.109375 C 2.289062 0.109375 1.953125 0.0625 1.640625 -0.03125 C 1.328125 -0.132812 1.0625 -0.269531 0.84375 -0.4375 C 0.632812 -0.601562 0.484375 -0.789062 0.390625 -1 L 0.90625 -1.53125 L 1.015625 -1.53125 C 1.203125 -1.238281 1.429688 -1.019531 1.703125 -0.875 C 1.972656 -0.726562 2.289062 -0.65625 2.65625 -0.65625 C 3.09375 -0.65625 3.421875 -0.738281 3.640625 -0.90625 C 3.867188 -1.082031 3.984375 -1.316406 3.984375 -1.609375 C 3.984375 -1.835938 3.914062 -2.023438 3.78125 -2.171875 C 3.644531 -2.328125 3.425781 -2.441406 3.125 -2.515625 L 2.140625 -2.765625 C 1.609375 -2.890625 1.222656 -3.085938 0.984375 -3.359375 C 0.742188 -3.640625 0.625 -3.984375 0.625 -4.390625 C 0.625 -4.703125 0.703125 -4.972656 0.859375 -5.203125 C 1.023438 -5.441406 1.257812 -5.625 1.5625 -5.75 C 1.863281 -5.882812 2.226562 -5.953125 2.65625 -5.953125 C 3.1875 -5.953125 3.609375 -5.875 3.921875 -5.71875 C 4.234375 -5.570312 4.472656 -5.363281 4.640625 -5.09375 L 4.15625 -4.625 L 4.046875 -4.625 C 3.859375 -4.84375 3.65625 -5 3.4375 -5.09375 C 3.21875 -5.1875 2.957031 -5.234375 2.65625 -5.234375 C 2.269531 -5.234375 1.972656 -5.160156 1.765625 -5.015625 C 1.566406 -4.878906 1.46875 -4.679688 1.46875 -4.421875 C 1.46875 -4.191406 1.535156 -4.003906 1.671875 -3.859375 C 1.816406 -3.710938 2.070312 -3.59375 2.4375 -3.5 L 3.40625 -3.265625 C 3.914062 -3.148438 4.28125 -2.953125 4.5 -2.671875 C 4.726562 -2.390625 4.84375 -2.039062 4.84375 -1.625 C 4.84375 -1.28125 4.757812 -0.976562 4.59375 -0.71875 C 4.4375 -0.457031 4.191406 -0.253906 3.859375 -0.109375 C 3.535156 0.0351562 3.132812 0.109375 2.65625 0.109375 Z M 2.65625 0.109375 "/></g></g><g style="fill:#f1901b;fill-opacity:1;"><g transform="translate(195.268676, 321.801922)"><path style="stroke:none" d=""/></g></g><g style="fill:#f1901b;fill-opacity:1;"><g transform="translate(197.459269, 321.801922)"><path style="stroke:none" d="M 3.359375 0.109375 C 2.835938 0.109375 2.367188 -0.00390625 1.953125 -0.234375 C 1.546875 -0.472656 1.222656 -0.820312 0.984375 -1.28125 C 0.753906 -1.738281 0.640625 -2.285156 0.640625 -2.921875 C 0.640625 -3.554688 0.753906 -4.101562 0.984375 -4.5625 C 1.222656 -5.019531 1.546875 -5.363281 1.953125 -5.59375 C 2.367188 -5.832031 2.835938 -5.953125 3.359375 -5.953125 C 3.972656 -5.953125 4.460938 -5.832031 4.828125 -5.59375 C 5.191406 -5.363281 5.457031 -5.054688 5.625 -4.671875 L 5.03125 -4.25 L 4.921875 -4.25 C 4.765625 -4.570312 4.5625 -4.804688 4.3125 -4.953125 C 4.0625 -5.097656 3.742188 -5.171875 3.359375 -5.171875 C 2.992188 -5.171875 2.675781 -5.085938 2.40625 -4.921875 C 2.132812 -4.753906 1.921875 -4.5 1.765625 -4.15625 C 1.617188 -3.820312 1.546875 -3.410156 1.546875 -2.921875 C 1.546875 -2.429688 1.617188 -2.015625 1.765625 -1.671875 C 1.921875 -1.335938 2.132812 -1.082031 2.40625 -0.90625 C 2.675781 -0.738281 2.992188 -0.65625 3.359375 -0.65625 C 3.753906 -0.65625 4.085938 -0.75 4.359375 -0.9375 C 4.628906 -1.125 4.835938 -1.414062 4.984375 -1.8125 L 5.09375 -1.8125 L 5.671875 -1.46875 C 5.515625 -0.976562 5.238281 -0.59375 4.84375 -0.3125 C 4.457031 -0.03125 3.960938 0.109375 3.359375 0.109375 Z M 3.359375 0.109375 "/></g></g><g style="fill:#f1901b;fill-opacity:1;"><g transform="translate(203.010855, 321.801922)"><path style="stroke:none" d="M 2.328125 0.109375 C 1.910156 0.109375 1.582031 -0.00390625 1.34375 -0.234375 C 1.113281 -0.472656 1 -0.828125 1 -1.296875 L 1 -8.1875 L 1.859375 -8.1875 L 1.859375 -1.34375 C 1.859375 -1.101562 1.90625 -0.925781 2 -0.8125 C 2.09375 -0.707031 2.238281 -0.65625 2.4375 -0.65625 C 2.550781 -0.65625 2.671875 -0.675781 2.796875 -0.71875 L 2.875 -0.703125 L 2.96875 -0.015625 C 2.90625 0.0234375 2.816406 0.0546875 2.703125 0.078125 C 2.585938 0.0976562 2.460938 0.109375 2.328125 0.109375 Z M 2.328125 0.109375 "/></g></g><g style="fill:#f1901b;fill-opacity:1;"><g transform="translate(205.720152, 321.801922)"><path style="stroke:none" d="M 2.40625 0.109375 C 1.832031 0.109375 1.382812 -0.0351562 1.0625 -0.328125 C 0.738281 -0.628906 0.578125 -1.0625 0.578125 -1.625 C 0.578125 -1.96875 0.644531 -2.257812 0.78125 -2.5 C 0.925781 -2.738281 1.148438 -2.929688 1.453125 -3.078125 C 1.753906 -3.234375 2.144531 -3.351562 2.625 -3.4375 C 3.050781 -3.5 3.375 -3.570312 3.59375 -3.65625 C 3.8125 -3.75 3.957031 -3.847656 4.03125 -3.953125 C 4.113281 -4.066406 4.15625 -4.207031 4.15625 -4.375 C 4.15625 -4.644531 4.0625 -4.847656 3.875 -4.984375 C 3.695312 -5.128906 3.40625 -5.203125 3 -5.203125 C 2.625 -5.203125 2.300781 -5.128906 2.03125 -4.984375 C 1.757812 -4.835938 1.515625 -4.617188 1.296875 -4.328125 L 1.1875 -4.328125 L 0.765625 -4.921875 C 1.015625 -5.234375 1.328125 -5.484375 1.703125 -5.671875 C 2.085938 -5.859375 2.519531 -5.953125 3 -5.953125 C 3.695312 -5.953125 4.207031 -5.800781 4.53125 -5.5 C 4.851562 -5.195312 5.015625 -4.78125 5.015625 -4.25 L 5.015625 -1.15625 C 5.015625 -0.820312 5.15625 -0.65625 5.4375 -0.65625 C 5.519531 -0.65625 5.609375 -0.671875 5.703125 -0.703125 L 5.765625 -0.6875 L 5.875 -0.09375 C 5.8125 -0.0507812 5.726562 -0.0195312 5.625 0 C 5.519531 0.03125 5.410156 0.046875 5.296875 0.046875 C 4.972656 0.046875 4.726562 -0.0195312 4.5625 -0.15625 C 4.40625 -0.300781 4.300781 -0.515625 4.25 -0.796875 L 4.140625 -0.8125 C 3.972656 -0.5 3.75 -0.265625 3.46875 -0.109375 C 3.1875 0.0351562 2.832031 0.109375 2.40625 0.109375 Z M 2.59375 -0.578125 C 2.925781 -0.578125 3.207031 -0.648438 3.4375 -0.796875 C 3.675781 -0.953125 3.859375 -1.164062 3.984375 -1.4375 C 4.117188 -1.707031 4.1875 -2.019531 4.1875 -2.375 L 4.1875 -3.125 L 4.078125 -3.140625 C 3.953125 -3.046875 3.796875 -2.96875 3.609375 -2.90625 C 3.421875 -2.84375 3.160156 -2.789062 2.828125 -2.75 C 2.484375 -2.695312 2.210938 -2.625 2.015625 -2.53125 C 1.816406 -2.4375 1.675781 -2.316406 1.59375 -2.171875 C 1.507812 -2.023438 1.46875 -1.84375 1.46875 -1.625 C 1.46875 -1.28125 1.566406 -1.019531 1.765625 -0.84375 C 1.960938 -0.664062 2.238281 -0.578125 2.59375 -0.578125 Z M 2.59375 -0.578125 "/></g></g><g style="fill:#f1901b;fill-opacity:1;"><g transform="translate(211.292909, 321.801922)"><path style="stroke:none" d="M 1.453125 -6.96875 C 1.265625 -6.96875 1.113281 -7.023438 1 -7.140625 C 0.882812 -7.253906 0.828125 -7.398438 0.828125 -7.578125 C 0.828125 -7.753906 0.882812 -7.898438 1 -8.015625 C 1.113281 -8.128906 1.265625 -8.1875 1.453125 -8.1875 C 1.628906 -8.1875 1.773438 -8.128906 1.890625 -8.015625 C 2.003906 -7.898438 2.0625 -7.753906 2.0625 -7.578125 C 2.0625 -7.398438 2.003906 -7.253906 1.890625 -7.140625 C 1.773438 -7.023438 1.628906 -6.96875 1.453125 -6.96875 Z M 1.015625 0 L 1.015625 -5.84375 L 1.875 -5.84375 L 1.875 0 Z M 1.015625 0 "/></g></g><g style="fill:#f1901b;fill-opacity:1;"><g transform="translate(213.721689, 321.801922)"><path style="stroke:none" d="M 1.015625 0 L 1.015625 -5.84375 L 1.84375 -5.84375 L 1.84375 -4.921875 L 1.953125 -4.890625 C 2.222656 -5.554688 2.734375 -5.890625 3.484375 -5.890625 C 3.878906 -5.890625 4.175781 -5.816406 4.375 -5.671875 L 4.15625 -4.953125 L 4.046875 -4.921875 C 3.828125 -5.035156 3.585938 -5.09375 3.328125 -5.09375 C 2.859375 -5.09375 2.5 -4.914062 2.25 -4.5625 C 2 -4.21875 1.875 -3.648438 1.875 -2.859375 L 1.875 0 Z M 1.015625 0 "/></g></g><g style="fill:#f1901b;fill-opacity:1;"><g transform="translate(217.764794, 321.801922)"><path style="stroke:none" d="M 5.5625 -2.71875 L 1.546875 -2.71875 C 1.578125 -2.007812 1.75 -1.488281 2.0625 -1.15625 C 2.375 -0.820312 2.804688 -0.65625 3.359375 -0.65625 C 3.773438 -0.65625 4.109375 -0.726562 4.359375 -0.875 C 4.617188 -1.03125 4.820312 -1.265625 4.96875 -1.578125 L 5.078125 -1.578125 L 5.640625 -1.25 C 5.472656 -0.820312 5.203125 -0.488281 4.828125 -0.25 C 4.453125 -0.0078125 3.960938 0.109375 3.359375 0.109375 C 2.796875 0.109375 2.3125 0 1.90625 -0.21875 C 1.5 -0.445312 1.1875 -0.785156 0.96875 -1.234375 C 0.75 -1.679688 0.640625 -2.242188 0.640625 -2.921875 C 0.640625 -3.578125 0.753906 -4.132812 0.984375 -4.59375 C 1.210938 -5.050781 1.523438 -5.390625 1.921875 -5.609375 C 2.328125 -5.835938 2.789062 -5.953125 3.3125 -5.953125 C 4.0625 -5.953125 4.644531 -5.738281 5.0625 -5.3125 C 5.476562 -4.894531 5.691406 -4.269531 5.703125 -3.4375 C 5.703125 -3.113281 5.691406 -2.894531 5.671875 -2.78125 Z M 4.84375 -3.4375 C 4.832031 -4.0625 4.695312 -4.515625 4.4375 -4.796875 C 4.175781 -5.078125 3.800781 -5.21875 3.3125 -5.21875 C 2.800781 -5.21875 2.398438 -5.078125 2.109375 -4.796875 C 1.816406 -4.515625 1.640625 -4.0625 1.578125 -3.4375 Z M 4.84375 -3.4375 "/></g></g><g style="fill:#f1901b;fill-opacity:1;"><g transform="translate(223.522797, 321.801922)"><path style="stroke:none" d="M 0.328125 1.609375 C 0.640625 1.410156 0.898438 1.175781 1.109375 0.90625 C 1.316406 0.644531 1.425781 0.359375 1.4375 0.046875 C 1.226562 0.046875 1.0625 -0.0078125 0.9375 -0.125 C 0.820312 -0.238281 0.765625 -0.390625 0.765625 -0.578125 C 0.765625 -0.765625 0.820312 -0.914062 0.9375 -1.03125 C 1.0625 -1.144531 1.21875 -1.203125 1.40625 -1.203125 C 1.613281 -1.203125 1.78125 -1.128906 1.90625 -0.984375 C 2.039062 -0.835938 2.109375 -0.613281 2.109375 -0.3125 C 2.109375 0.238281 1.988281 0.703125 1.75 1.078125 C 1.507812 1.453125 1.160156 1.796875 0.703125 2.109375 Z M 0.328125 1.609375 "/></g></g><g style="fill:#f1901b;fill-opacity:1;"><g transform="translate(225.930405, 321.801922)"><path style="stroke:none" d=""/></g></g><g style="fill:#f1901b;fill-opacity:1;"><g transform="translate(228.120999, 321.801922)"><path style="stroke:none" d="M 1.015625 2.359375 L 1.015625 -5.84375 L 1.875 -5.84375 L 1.875 -4.96875 L 1.984375 -4.953125 C 2.421875 -5.617188 3.0625 -5.953125 3.90625 -5.953125 C 4.394531 -5.953125 4.816406 -5.835938 5.171875 -5.609375 C 5.535156 -5.390625 5.816406 -5.050781 6.015625 -4.59375 C 6.222656 -4.144531 6.328125 -3.585938 6.328125 -2.921875 C 6.328125 -2.253906 6.21875 -1.691406 6 -1.234375 C 5.789062 -0.785156 5.5 -0.445312 5.125 -0.21875 C 4.75 0 4.320312 0.109375 3.84375 0.109375 C 3.445312 0.109375 3.09375 0.0390625 2.78125 -0.09375 C 2.476562 -0.226562 2.210938 -0.453125 1.984375 -0.765625 L 1.875 -0.75 L 1.875 2.359375 Z M 3.640625 -0.65625 C 4.828125 -0.65625 5.421875 -1.410156 5.421875 -2.921875 C 5.421875 -4.421875 4.828125 -5.171875 3.640625 -5.171875 C 3.296875 -5.171875 2.988281 -5.09375 2.71875 -4.9375 C 2.457031 -4.78125 2.25 -4.53125 2.09375 -4.1875 C 1.945312 -3.851562 1.875 -3.429688 1.875 -2.921875 C 1.875 -2.410156 1.945312 -1.984375 2.09375 -1.640625 C 2.25 -1.304688 2.457031 -1.054688 2.71875 -0.890625 C 2.988281 -0.734375 3.296875 -0.65625 3.640625 -0.65625 Z M 3.640625 -0.65625 "/></g></g><g style="fill:#f1901b;fill-opacity:1;"><g transform="translate(234.620006, 321.801922)"><path style="stroke:none" d="M 2.328125 0.109375 C 1.910156 0.109375 1.582031 -0.00390625 1.34375 -0.234375 C 1.113281 -0.472656 1 -0.828125 1 -1.296875 L 1 -8.1875 L 1.859375 -8.1875 L 1.859375 -1.34375 C 1.859375 -1.101562 1.90625 -0.925781 2 -0.8125 C 2.09375 -0.707031 2.238281 -0.65625 2.4375 -0.65625 C 2.550781 -0.65625 2.671875 -0.675781 2.796875 -0.71875 L 2.875 -0.703125 L 2.96875 -0.015625 C 2.90625 0.0234375 2.816406 0.0546875 2.703125 0.078125 C 2.585938 0.0976562 2.460938 0.109375 2.328125 0.109375 Z M 2.328125 0.109375 "/></g></g><g style="fill:#f1901b;fill-opacity:1;"><g transform="translate(237.329303, 321.801922)"><path style="stroke:none" d="M 2.890625 0.109375 C 2.222656 0.109375 1.726562 -0.0625 1.40625 -0.40625 C 1.082031 -0.757812 0.921875 -1.273438 0.921875 -1.953125 L 0.921875 -5.84375 L 1.796875 -5.84375 L 1.796875 -1.96875 C 1.796875 -1.082031 2.210938 -0.640625 3.046875 -0.640625 C 3.566406 -0.640625 3.976562 -0.8125 4.28125 -1.15625 C 4.59375 -1.5 4.75 -2.0625 4.75 -2.84375 L 4.75 -5.84375 L 5.625 -5.84375 L 5.625 0 L 4.796875 0 L 4.796875 -0.921875 L 4.6875 -0.9375 C 4.488281 -0.582031 4.25 -0.316406 3.96875 -0.140625 C 3.6875 0.0234375 3.328125 0.109375 2.890625 0.109375 Z M 2.890625 0.109375 "/></g></g><g style="fill:#f1901b;fill-opacity:1;"><g transform="translate(243.494865, 321.801922)"><path style="stroke:none" d="M 2.65625 0.109375 C 2.289062 0.109375 1.953125 0.0625 1.640625 -0.03125 C 1.328125 -0.132812 1.0625 -0.269531 0.84375 -0.4375 C 0.632812 -0.601562 0.484375 -0.789062 0.390625 -1 L 0.90625 -1.53125 L 1.015625 -1.53125 C 1.203125 -1.238281 1.429688 -1.019531 1.703125 -0.875 C 1.972656 -0.726562 2.289062 -0.65625 2.65625 -0.65625 C 3.09375 -0.65625 3.421875 -0.738281 3.640625 -0.90625 C 3.867188 -1.082031 3.984375 -1.316406 3.984375 -1.609375 C 3.984375 -1.835938 3.914062 -2.023438 3.78125 -2.171875 C 3.644531 -2.328125 3.425781 -2.441406 3.125 -2.515625 L 2.140625 -2.765625 C 1.609375 -2.890625 1.222656 -3.085938 0.984375 -3.359375 C 0.742188 -3.640625 0.625 -3.984375 0.625 -4.390625 C 0.625 -4.703125 0.703125 -4.972656 0.859375 -5.203125 C 1.023438 -5.441406 1.257812 -5.625 1.5625 -5.75 C 1.863281 -5.882812 2.226562 -5.953125 2.65625 -5.953125 C 3.1875 -5.953125 3.609375 -5.875 3.921875 -5.71875 C 4.234375 -5.570312 4.472656 -5.363281 4.640625 -5.09375 L 4.15625 -4.625 L 4.046875 -4.625 C 3.859375 -4.84375 3.65625 -5 3.4375 -5.09375 C 3.21875 -5.1875 2.957031 -5.234375 2.65625 -5.234375 C 2.269531 -5.234375 1.972656 -5.160156 1.765625 -5.015625 C 1.566406 -4.878906 1.46875 -4.679688 1.46875 -4.421875 C 1.46875 -4.191406 1.535156 -4.003906 1.671875 -3.859375 C 1.816406 -3.710938 2.070312 -3.59375 2.4375 -3.5 L 3.40625 -3.265625 C 3.914062 -3.148438 4.28125 -2.953125 4.5 -2.671875 C 4.726562 -2.390625 4.84375 -2.039062 4.84375 -1.625 C 4.84375 -1.28125 4.757812 -0.976562 4.59375 -0.71875 C 4.4375 -0.457031 4.191406 -0.253906 3.859375 -0.109375 C 3.535156 0.0351562 3.132812 0.109375 2.65625 0.109375 Z M 2.65625 0.109375 "/></g></g><g style="fill:#f1901b;fill-opacity:1;"><g transform="translate(248.427176, 321.801922)"><path style="stroke:none" d=""/></g></g><g style="fill:#f1901b;fill-opacity:1;"><g transform="translate(250.61777, 321.801922)"><path style="stroke:none" d="M 2.65625 0.109375 C 2.289062 0.109375 1.953125 0.0625 1.640625 -0.03125 C 1.328125 -0.132812 1.0625 -0.269531 0.84375 -0.4375 C 0.632812 -0.601562 0.484375 -0.789062 0.390625 -1 L 0.90625 -1.53125 L 1.015625 -1.53125 C 1.203125 -1.238281 1.429688 -1.019531 1.703125 -0.875 C 1.972656 -0.726562 2.289062 -0.65625 2.65625 -0.65625 C 3.09375 -0.65625 3.421875 -0.738281 3.640625 -0.90625 C 3.867188 -1.082031 3.984375 -1.316406 3.984375 -1.609375 C 3.984375 -1.835938 3.914062 -2.023438 3.78125 -2.171875 C 3.644531 -2.328125 3.425781 -2.441406 3.125 -2.515625 L 2.140625 -2.765625 C 1.609375 -2.890625 1.222656 -3.085938 0.984375 -3.359375 C 0.742188 -3.640625 0.625 -3.984375 0.625 -4.390625 C 0.625 -4.703125 0.703125 -4.972656 0.859375 -5.203125 C 1.023438 -5.441406 1.257812 -5.625 1.5625 -5.75 C 1.863281 -5.882812 2.226562 -5.953125 2.65625 -5.953125 C 3.1875 -5.953125 3.609375 -5.875 3.921875 -5.71875 C 4.234375 -5.570312 4.472656 -5.363281 4.640625 -5.09375 L 4.15625 -4.625 L 4.046875 -4.625 C 3.859375 -4.84375 3.65625 -5 3.4375 -5.09375 C 3.21875 -5.1875 2.957031 -5.234375 2.65625 -5.234375 C 2.269531 -5.234375 1.972656 -5.160156 1.765625 -5.015625 C 1.566406 -4.878906 1.46875 -4.679688 1.46875 -4.421875 C 1.46875 -4.191406 1.535156 -4.003906 1.671875 -3.859375 C 1.816406 -3.710938 2.070312 -3.59375 2.4375 -3.5 L 3.40625 -3.265625 C 3.914062 -3.148438 4.28125 -2.953125 4.5 -2.671875 C 4.726562 -2.390625 4.84375 -2.039062 4.84375 -1.625 C 4.84375 -1.28125 4.757812 -0.976562 4.59375 -0.71875 C 4.4375 -0.457031 4.191406 -0.253906 3.859375 -0.109375 C 3.535156 0.0351562 3.132812 0.109375 2.65625 0.109375 Z M 2.65625 0.109375 "/></g></g><g style="fill:#f1901b;fill-opacity:1;"><g transform="translate(255.550082, 321.801922)"><path style="stroke:none" d="M 1.453125 -6.96875 C 1.265625 -6.96875 1.113281 -7.023438 1 -7.140625 C 0.882812 -7.253906 0.828125 -7.398438 0.828125 -7.578125 C 0.828125 -7.753906 0.882812 -7.898438 1 -8.015625 C 1.113281 -8.128906 1.265625 -8.1875 1.453125 -8.1875 C 1.628906 -8.1875 1.773438 -8.128906 1.890625 -8.015625 C 2.003906 -7.898438 2.0625 -7.753906 2.0625 -7.578125 C 2.0625 -7.398438 2.003906 -7.253906 1.890625 -7.140625 C 1.773438 -7.023438 1.628906 -6.96875 1.453125 -6.96875 Z M 1.015625 0 L 1.015625 -5.84375 L 1.875 -5.84375 L 1.875 0 Z M 1.015625 0 "/></g></g><g style="fill:#f1901b;fill-opacity:1;"><g transform="translate(257.978861, 321.801922)"><path style="stroke:none" d="M 1.015625 0 L 1.015625 -5.84375 L 1.84375 -5.84375 L 1.84375 -4.984375 L 1.953125 -4.953125 C 2.148438 -5.285156 2.390625 -5.535156 2.671875 -5.703125 C 2.953125 -5.867188 3.285156 -5.953125 3.671875 -5.953125 C 4.128906 -5.953125 4.476562 -5.863281 4.71875 -5.6875 C 4.96875 -5.519531 5.160156 -5.242188 5.296875 -4.859375 L 5.40625 -4.859375 C 5.613281 -5.222656 5.863281 -5.492188 6.15625 -5.671875 C 6.445312 -5.859375 6.8125 -5.953125 7.25 -5.953125 C 7.84375 -5.953125 8.285156 -5.789062 8.578125 -5.46875 C 8.878906 -5.144531 9.03125 -4.648438 9.03125 -3.984375 L 9.03125 0 L 8.171875 0 L 8.171875 -3.953125 C 8.171875 -4.378906 8.078125 -4.691406 7.890625 -4.890625 C 7.710938 -5.097656 7.425781 -5.203125 7.03125 -5.203125 C 6.570312 -5.203125 6.191406 -5.03125 5.890625 -4.6875 C 5.597656 -4.351562 5.453125 -3.796875 5.453125 -3.015625 L 5.453125 0 L 4.59375 0 L 4.59375 -3.953125 C 4.59375 -4.378906 4.503906 -4.691406 4.328125 -4.890625 C 4.148438 -5.097656 3.863281 -5.203125 3.46875 -5.203125 C 3 -5.203125 2.613281 -5.035156 2.3125 -4.703125 C 2.019531 -4.378906 1.875 -3.847656 1.875 -3.109375 L 1.875 0 Z M 1.015625 0 "/></g></g><g style="fill:#f1901b;fill-opacity:1;"><g transform="translate(267.46306, 321.801922)"><path style="stroke:none" d="M 1.015625 2.359375 L 1.015625 -5.84375 L 1.875 -5.84375 L 1.875 -4.96875 L 1.984375 -4.953125 C 2.421875 -5.617188 3.0625 -5.953125 3.90625 -5.953125 C 4.394531 -5.953125 4.816406 -5.835938 5.171875 -5.609375 C 5.535156 -5.390625 5.816406 -5.050781 6.015625 -4.59375 C 6.222656 -4.144531 6.328125 -3.585938 6.328125 -2.921875 C 6.328125 -2.253906 6.21875 -1.691406 6 -1.234375 C 5.789062 -0.785156 5.5 -0.445312 5.125 -0.21875 C 4.75 0 4.320312 0.109375 3.84375 0.109375 C 3.445312 0.109375 3.09375 0.0390625 2.78125 -0.09375 C 2.476562 -0.226562 2.210938 -0.453125 1.984375 -0.765625 L 1.875 -0.75 L 1.875 2.359375 Z M 3.640625 -0.65625 C 4.828125 -0.65625 5.421875 -1.410156 5.421875 -2.921875 C 5.421875 -4.421875 4.828125 -5.171875 3.640625 -5.171875 C 3.296875 -5.171875 2.988281 -5.09375 2.71875 -4.9375 C 2.457031 -4.78125 2.25 -4.53125 2.09375 -4.1875 C 1.945312 -3.851562 1.875 -3.429688 1.875 -2.921875 C 1.875 -2.410156 1.945312 -1.984375 2.09375 -1.640625 C 2.25 -1.304688 2.457031 -1.054688 2.71875 -0.890625 C 2.988281 -0.734375 3.296875 -0.65625 3.640625 -0.65625 Z M 3.640625 -0.65625 "/></g></g><g style="fill:#f1901b;fill-opacity:1;"><g transform="translate(273.962068, 321.801922)"><path style="stroke:none" d="M 2.328125 0.109375 C 1.910156 0.109375 1.582031 -0.00390625 1.34375 -0.234375 C 1.113281 -0.472656 1 -0.828125 1 -1.296875 L 1 -8.1875 L 1.859375 -8.1875 L 1.859375 -1.34375 C 1.859375 -1.101562 1.90625 -0.925781 2 -0.8125 C 2.09375 -0.707031 2.238281 -0.65625 2.4375 -0.65625 C 2.550781 -0.65625 2.671875 -0.675781 2.796875 -0.71875 L 2.875 -0.703125 L 2.96875 -0.015625 C 2.90625 0.0234375 2.816406 0.0546875 2.703125 0.078125 C 2.585938 0.0976562 2.460938 0.109375 2.328125 0.109375 Z M 2.328125 0.109375 "/></g></g><g style="fill:#f1901b;fill-opacity:1;"><g transform="translate(276.671365, 321.801922)"><path style="stroke:none" d="M 5.5625 -2.71875 L 1.546875 -2.71875 C 1.578125 -2.007812 1.75 -1.488281 2.0625 -1.15625 C 2.375 -0.820312 2.804688 -0.65625 3.359375 -0.65625 C 3.773438 -0.65625 4.109375 -0.726562 4.359375 -0.875 C 4.617188 -1.03125 4.820312 -1.265625 4.96875 -1.578125 L 5.078125 -1.578125 L 5.640625 -1.25 C 5.472656 -0.820312 5.203125 -0.488281 4.828125 -0.25 C 4.453125 -0.0078125 3.960938 0.109375 3.359375 0.109375 C 2.796875 0.109375 2.3125 0 1.90625 -0.21875 C 1.5 -0.445312 1.1875 -0.785156 0.96875 -1.234375 C 0.75 -1.679688 0.640625 -2.242188 0.640625 -2.921875 C 0.640625 -3.578125 0.753906 -4.132812 0.984375 -4.59375 C 1.210938 -5.050781 1.523438 -5.390625 1.921875 -5.609375 C 2.328125 -5.835938 2.789062 -5.953125 3.3125 -5.953125 C 4.0625 -5.953125 4.644531 -5.738281 5.0625 -5.3125 C 5.476562 -4.894531 5.691406 -4.269531 5.703125 -3.4375 C 5.703125 -3.113281 5.691406 -2.894531 5.671875 -2.78125 Z M 4.84375 -3.4375 C 4.832031 -4.0625 4.695312 -4.515625 4.4375 -4.796875 C 4.175781 -5.078125 3.800781 -5.21875 3.3125 -5.21875 C 2.800781 -5.21875 2.398438 -5.078125 2.109375 -4.796875 C 1.816406 -4.515625 1.640625 -4.0625 1.578125 -3.4375 Z M 4.84375 -3.4375 "/></g></g><g style="fill:#f1901b;fill-opacity:1;"><g transform="translate(282.429356, 321.801922)"><path style="stroke:none" d="M 1.421875 0.046875 C 1.222656 0.046875 1.0625 -0.00390625 0.9375 -0.109375 C 0.820312 -0.222656 0.765625 -0.375 0.765625 -0.5625 C 0.765625 -0.75 0.820312 -0.898438 0.9375 -1.015625 C 1.0625 -1.140625 1.222656 -1.203125 1.421875 -1.203125 C 1.628906 -1.203125 1.789062 -1.144531 1.90625 -1.03125 C 2.019531 -0.914062 2.078125 -0.765625 2.078125 -0.578125 C 2.078125 -0.390625 2.015625 -0.238281 1.890625 -0.125 C 1.773438 -0.0078125 1.617188 0.046875 1.421875 0.046875 Z M 1.421875 0.046875 "/></g></g><path style=" stroke:none;fill-rule:evenodd;fill:#60b3e4;fill-opacity:1;" d="M 270.046875 241.695312 C 255.558594 174.488281 209.03125 194.390625 163.351562 179.976562 C 89.074219 156.542969 131.496094 86.789062 168.683594 47.101562 C 169.53125 51.0625 169.957031 53.046875 169.957031 53.046875 C 178.390625 38.535156 182.605469 31.285156 182.605469 31.285156 C 167.113281 37.085938 159.359375 39.996094 159.359375 39.996094 C 162.023438 41.511719 163.351562 42.273438 163.351562 42.273438 C 123.652344 75.089844 102.414062 106.914062 99.636719 137.722656 C 96.367188 174.03125 119.101562 193.261719 145.550781 201.039062 C 185.046875 212.636719 240.285156 197.121094 270.046875 241.707031 Z M 270.046875 241.695312 "/><g clip-rule="nonzero" clip-path="url(#d23317a115)"><path style=" stroke:none;fill-rule:evenodd;fill:#f1901b;fill-opacity:1;" d="M 275.792969 263.359375 C 241.984375 182.710938 145.492188 242.132812 101.644531 180.546875 C 97.863281 174.945312 94.808594 169.367188 92.464844 163.792969 C 95.890625 165.820312 97.605469 166.835938 97.605469 166.835938 C 91.570312 157.867188 88.558594 153.382812 88.558594 153.382812 C 86.640625 162.820312 85.683594 167.539062 85.683594 167.539062 C 87.800781 165.421875 88.863281 164.371094 88.863281 164.371094 C 99.671875 202.285156 119.300781 224.484375 147.734375 230.953125 C 185.148438 239.464844 250.949219 224.976562 275.804688 263.371094 Z M 275.792969 263.359375 "/></g><g clip-rule="nonzero" clip-path="url(#3e8fc35b25)"><path style=" stroke:none;fill-rule:evenodd;fill:#f1901b;fill-opacity:1;" d="M 251.710938 138.101562 L 251.710938 197.078125 C 248.730469 194.65625 245.40625 192.515625 241.679688 190.695312 C 240.734375 190.238281 239.785156 189.804688 238.816406 189.390625 L 238.816406 125.898438 L 231.25 133.371094 L 231.25 186.703125 C 227.046875 185.464844 222.71875 184.5625 218.355469 183.859375 L 218.355469 137.523438 L 218.300781 137.523438 L 218.300781 84.4375 L 201.011719 100.300781 L 201.011719 181.660156 C 196.695312 181.191406 192.398438 180.714844 188.117188 180.132812 L 188.117188 27.859375 L 218.300781 57.273438 L 218.300781 84.4375 L 231.242188 98.023438 L 231.25 98.023438 L 231.25 98.046875 L 238.816406 105.988281 L 238.816406 125.886719 Z M 251.710938 138.101562 "/></g><path style=" stroke:none;fill-rule:evenodd;fill:#f1901b;fill-opacity:1;" d="M 144.101562 138.101562 L 144.101562 165.476562 C 148.058594 168.253906 152.453125 170.527344 156.996094 172.402344 L 156.996094 125.886719 L 164.558594 133.363281 L 164.558594 175.136719 L 164.847656 175.226562 C 169.019531 176.542969 173.226562 177.554688 177.453125 178.394531 L 177.453125 137.5 L 177.507812 137.5 L 177.507812 84.449219 L 164.570312 98.035156 L 164.558594 98.035156 L 164.558594 98.058594 L 156.996094 106 L 156.996094 125.898438 L 144.101562 138.113281 Z M 144.101562 138.101562 "/></g></svg>