<svg xmlns="http://www.w3.org/2000/svg" xmlns:xlink="http://www.w3.org/1999/xlink" width="200" zoomAndPan="magnify" viewBox="0 0 150 172.499995" height="230" preserveAspectRatio="xMidYMid meet" version="1.2"><defs><clipPath id="4875e45993"><path d="M 5.574219 91 L 144.671875 91 L 144.671875 172 L 5.574219 172 Z M 5.574219 91 "/></clipPath></defs><g id="76f5b40a90"><path style=" stroke:none;fill-rule:evenodd;fill:#ffffff;fill-opacity:1;" d="M 140.246094 156.195312 C 129.664062 107.105469 95.679688 121.640625 62.3125 111.113281 C 8.058594 93.992188 39.042969 43.046875 66.207031 14.054688 C 66.828125 16.949219 67.136719 18.398438 67.136719 18.398438 C 73.296875 7.796875 76.375 2.5 76.375 2.5 C 65.058594 6.738281 59.398438 8.863281 59.398438 8.863281 C 61.34375 9.972656 62.3125 10.527344 62.3125 10.527344 C 33.316406 34.5 17.800781 57.742188 15.773438 80.25 C 13.386719 106.769531 29.992188 120.816406 49.308594 126.496094 C 78.160156 134.96875 118.507812 123.636719 140.246094 156.203125 Z M 140.246094 156.195312 "/><g clip-rule="nonzero" clip-path="url(#4875e45993)"><path style=" stroke:none;fill-rule:evenodd;fill:#f6941d;fill-opacity:1;" d="M 144.445312 172.019531 C 119.746094 113.109375 49.269531 156.511719 17.238281 111.527344 C 14.476562 107.4375 12.246094 103.363281 10.535156 99.289062 C 13.035156 100.773438 14.289062 101.515625 14.289062 101.515625 C 9.882812 94.964844 7.683594 91.6875 7.683594 91.6875 C 6.28125 98.582031 5.578125 102.027344 5.578125 102.027344 C 7.128906 100.480469 7.902344 99.714844 7.902344 99.714844 C 15.796875 127.40625 30.136719 143.621094 50.90625 148.347656 C 78.234375 154.566406 126.296875 143.980469 144.453125 172.027344 Z M 144.445312 172.019531 "/></g><path style=" stroke:none;fill-rule:evenodd;fill:#f6941d;fill-opacity:1;" d="M 126.851562 80.523438 L 126.851562 123.601562 C 124.675781 121.835938 122.25 120.269531 119.527344 118.941406 C 118.835938 118.609375 118.144531 118.289062 117.433594 117.988281 L 117.433594 71.613281 L 111.910156 77.070312 L 111.910156 116.027344 C 108.835938 115.121094 105.675781 114.460938 102.492188 113.949219 L 102.492188 80.101562 L 102.449219 80.101562 L 102.449219 41.324219 L 89.820312 52.914062 L 89.820312 112.34375 C 86.667969 112 83.53125 111.648438 80.402344 111.226562 L 80.402344 0 L 102.449219 21.484375 L 102.449219 41.324219 L 111.902344 51.25 L 111.910156 51.25 L 111.910156 51.265625 L 117.433594 57.066406 L 117.433594 71.601562 Z M 126.851562 80.523438 "/><path style=" stroke:none;fill-rule:evenodd;fill:#f6941d;fill-opacity:1;" d="M 48.25 80.523438 L 48.25 100.519531 C 51.144531 102.550781 54.351562 104.210938 57.667969 105.578125 L 57.667969 71.601562 L 63.195312 77.0625 L 63.195312 107.578125 L 63.40625 107.640625 C 66.453125 108.601562 69.523438 109.34375 72.613281 109.957031 L 72.613281 80.085938 L 72.652344 80.085938 L 72.652344 41.335938 L 63.203125 51.257812 L 63.195312 51.257812 L 63.195312 51.273438 L 57.667969 57.074219 L 57.667969 71.613281 L 48.25 80.535156 Z M 48.25 80.523438 "/></g></svg>