<svg xmlns="http://www.w3.org/2000/svg" xmlns:xlink="http://www.w3.org/1999/xlink" width="500" zoomAndPan="magnify" viewBox="0 0 375 374.999991" height="500" preserveAspectRatio="xMidYMid meet" version="1.2"><defs><clipPath id="db99467ea1"><path d="M 34.773438 199 L 337.773438 199 L 337.773438 375 L 34.773438 375 Z M 34.773438 199 "/></clipPath></defs><g id="578b182d80"><rect x="0" width="375" y="0" height="374.999991" style="fill:#ffffff;fill-opacity:1;stroke:none;"/><rect x="0" width="375" y="0" height="374.999991" style="fill:#ffffff;fill-opacity:1;stroke:none;"/><path style=" stroke:none;fill-rule:evenodd;fill:#60b3e4;fill-opacity:1;" d="M 328.386719 340.539062 C 305.3125 233.507812 231.21875 265.199219 158.472656 242.25 C 40.183594 204.925781 107.738281 93.847656 166.964844 30.644531 C 168.316406 36.949219 168.988281 40.109375 168.988281 40.109375 C 182.417969 17 189.132812 5.453125 189.132812 5.453125 C 164.460938 14.691406 152.113281 19.328125 152.113281 19.328125 C 156.359375 21.742188 158.472656 22.953125 158.472656 22.953125 C 95.25 75.214844 61.429688 125.894531 57.003906 174.957031 C 51.800781 232.78125 88.003906 263.40625 130.121094 275.789062 C 193.023438 294.261719 280.992188 269.550781 328.386719 340.554688 Z M 328.386719 340.539062 "/><g clip-rule="nonzero" clip-path="url(#db99467ea1)"><path style=" stroke:none;fill-rule:evenodd;fill:#f1901b;fill-opacity:1;" d="M 337.535156 375.035156 C 283.691406 246.601562 130.03125 341.230469 60.203125 243.15625 C 54.179688 234.238281 49.3125 225.355469 45.582031 216.472656 C 51.035156 219.707031 53.773438 221.324219 53.773438 221.324219 C 44.160156 207.039062 39.363281 199.898438 39.363281 199.898438 C 36.308594 214.929688 34.78125 222.441406 34.78125 222.441406 C 38.15625 219.066406 39.84375 217.398438 39.84375 217.398438 C 57.058594 277.777344 88.324219 313.128906 133.605469 323.429688 C 193.183594 336.984375 297.976562 313.910156 337.554688 375.054688 Z M 337.535156 375.035156 "/></g><path style=" stroke:none;fill-rule:evenodd;fill:#f1901b;fill-opacity:1;" d="M 299.183594 175.5625 L 299.183594 269.480469 C 294.441406 265.625 289.144531 262.214844 283.210938 259.320312 C 281.703125 258.59375 280.191406 257.898438 278.648438 257.242188 L 278.648438 156.128906 L 266.601562 168.03125 L 266.601562 252.960938 C 259.90625 250.988281 253.015625 249.550781 246.066406 248.429688 L 246.066406 174.640625 L 245.980469 174.640625 L 245.980469 90.097656 L 218.445312 115.359375 L 218.445312 244.929688 C 211.570312 244.183594 204.730469 243.421875 197.910156 242.496094 L 197.910156 0 L 245.980469 46.84375 L 245.980469 90.097656 L 266.585938 111.734375 L 266.601562 111.734375 L 266.601562 111.773438 L 278.648438 124.417969 L 278.648438 156.109375 Z M 299.183594 175.5625 "/><path style=" stroke:none;fill-rule:evenodd;fill:#f1901b;fill-opacity:1;" d="M 127.8125 175.5625 L 127.8125 219.15625 C 134.117188 223.578125 141.117188 227.203125 148.347656 230.1875 L 148.347656 156.109375 L 160.390625 168.011719 L 160.390625 234.539062 L 160.855469 234.679688 C 167.496094 236.777344 174.195312 238.394531 180.925781 239.726562 L 180.925781 174.601562 L 181.015625 174.601562 L 181.015625 90.117188 L 160.410156 111.753906 L 160.390625 111.753906 L 160.390625 111.789062 L 148.347656 124.4375 L 148.347656 156.128906 L 127.8125 175.582031 Z M 127.8125 175.5625 "/></g></svg>